# xmcd
#
# Track frame offsets: 
#        150
#        6040
#        27655
#        46736
#        70296
#        89676
#        112067
#        128732
#        157686
#        176667
#        199772
#        225723
#
# Disc length: 3284 seconds
#
# Revision: 0
# Processed by: cddbd v1.5.1PL0 Copyright (c) Steve Scherf et al.
# Submitted via: ExactAudioCopy v0.95a5
#
DISCID=9b0cd20c
DTITLE=Jim Miller and Buffalo Country - 2002-09-07 Seven Stars Music F
DTITLE=estival, Phoenixville, PA
DYEAR=2002
DGENRE=Country
TTITLE0=Introduction
TTITLE1=Angel With A Broken Wing
TTITLE2=Big Mouth Blues 
TTITLE3=Why Not Me
TTITLE4=That Ain't Right
TTITLE5=Lost In The Lonesome Pines
TTITLE6=Why Baby Why
TTITLE7=Senor
TTITLE8=Roving Gambler
TTITLE9=Treasure Of Love
TTITLE10=Nothing But The Wheel
TTITLE11=Real Deal
EXTD=
EXTT0=
EXTT1=
EXTT2=
EXTT3=
EXTT4=
EXTT5=
EXTT6=
EXTT7=
EXTT8=
EXTT9=
EXTT10=
EXTT11=
PLAYORDER=
